<?xml version="1.0" standalone="no"?>
<!DOCTYPE svg PUBLIC "-//W3C//DTD SVG 20010904//EN"
 "http://www.w3.org/TR/2001/REC-SVG-20010904/DTD/svg10.dtd">
<svg version="1.0" xmlns="http://www.w3.org/2000/svg"
 width="604.000000pt" height="444.000000pt" viewBox="0 0 604.000000 444.000000"
 preserveAspectRatio="xMidYMid meet">

<g transform="translate(0.000000,444.000000) scale(0.100000,-0.100000)"
fill="#000000" stroke="none">
<path d="M2835 4257 c-137 -237 -425 -727 -625 -1062 -797 -1335 -1228 -2066
-1387 -2347 -2 -5 831 -8 1851 -8 l1856 0 0 23 c0 12 -17 51 -38 87 l-38 65
-1668 3 -1668 2 7 28 c3 15 59 117 124 227 134 226 1333 2274 1579 2695 88
152 166 288 172 302 11 23 8 34 -21 92 -18 36 -36 66 -39 66 -3 0 -50 -78
-105 -173z"/>
<path fill="#FF0000" d="M3004 4383 c4 -11 238 -516 522 -1124 684 -1465 974 -2090 1390
-2994 36 -77 68 -143 73 -148 14 -14 134 86 281 236 120 123 393 383 701 667
33 30 59 60 59 65 0 11 -27 41 -380 426 -323 350 -512 558 -1259 1379 -495
544 -1117 1220 -1319 1433 -41 44 -71 70 -68 60z"/>
<path d="M2920 3963 c-35 -65 -135 -251 -223 -413 -200 -368 -337 -633 -337
-650 0 -7 107 -119 239 -249 284 -282 271 -258 251 -476 -7 -74 -9 -151 -6
-170 l7 -35 109 0 110 0 0 203 0 202 166 170 c182 186 280 295 295 329 8 17 2
40 -31 111 -23 50 -102 223 -175 385 -142 315 -289 624 -322 678 l-21 34 -62
-119z m104 -515 c24 -51 73 -174 110 -272 37 -99 72 -188 77 -198 8 -15 -4
-37 -64 -116 -40 -53 -95 -127 -121 -164 -26 -38 -53 -68 -58 -68 -20 0 -106
102 -193 227 l-86 123 142 280 c78 154 144 280 146 280 3 0 24 -42 47 -92z"/>
<path d="M2226 2738 c-7 -13 -49 -84 -91 -158 -43 -74 -241 -407 -440 -740
-199 -333 -376 -631 -394 -663 l-33 -58 153 3 153 3 139 230 c227 378 294 471
333 464 5 -1 147 -1 317 0 l307 1 0 263 0 262 -208 208 c-114 114 -210 207
-214 207 -4 0 -14 -10 -22 -22z m116 -421 c64 -49 91 -104 96 -199 l5 -78
-156 0 -156 0 10 28 c5 15 38 79 74 142 36 63 65 121 65 128 0 19 15 14 62
-21z"/>
<path d="M3635 2701 c-22 -17 -59 -53 -83 -80 -24 -28 -88 -87 -143 -132 -55
-44 -112 -99 -127 -121 -25 -39 -27 -48 -26 -147 0 -58 3 -176 7 -261 l8 -155
257 -5 256 -5 53 -115 c56 -123 193 -459 193 -473 0 -5 -173 -7 -384 -6 -305
2 -388 0 -400 -10 -18 -15 -22 -56 -6 -66 27 -17 1180 -1 1180 16 0 4 -30 70
-66 146 -121 255 -232 495 -447 967 -117 258 -218 471 -223 473 -5 2 -28 -10
-49 -26z m21 -411 c18 -30 54 -99 78 -153 l46 -98 -148 3 -147 3 -3 54 c-2 29
4 73 12 97 16 47 102 157 119 151 5 -1 24 -27 43 -57z"/>
<path d="M2860 1560 l0 -260 -355 0 c-195 0 -355 2 -355 4 0 12 70 156 93 194
l27 42 190 0 190 0 0 60 0 60 -293 0 -292 0 -32 -57 c-63 -116 -243 -467 -243
-475 0 -4 286 -8 635 -8 l635 0 0 69 c0 112 -45 101 421 101 225 0 409 2 409
5 0 2 -37 79 -81 170 l-82 165 -333 0 -334 0 0 95 0 95 -100 0 -100 0 0 -260z
m648 -104 c17 -30 32 -59 32 -65 0 -8 -74 -11 -245 -11 l-245 0 0 65 0 65 213
0 212 -1 33 -53z"/>
<path d="M1929 806 c-3 -3 -49 -7 -104 -10 l-98 -4 -13 -33 c-7 -19 -62 -169
-122 -334 -60 -165 -113 -308 -117 -318 -7 -16 5 -17 163 -17 l171 0 70 178
c67 170 119 293 127 301 5 5 52 -26 331 -221 326 -227 405 -262 596 -261 54 0
100 3 102 5 7 7 33 241 50 438 8 102 17 204 19 228 l4 43 -147 -3 -146 -3 -17
-190 c-17 -188 -20 -215 -40 -308 l-10 -47 -31 22 c-30 21 -327 258 -515 411
-45 37 -104 77 -130 91 -45 22 -133 42 -143 32z"/>
<path d="M742 703 c-57 -80 -276 -420 -371 -575 l-23 -38 509 0 510 0 31 84
c18 45 32 86 32 90 0 3 -112 6 -249 6 -136 0 -275 3 -309 6 l-60 7 25 46 c13
25 27 49 31 53 4 4 66 8 137 9 72 0 138 5 147 10 18 10 58 78 58 99 0 6 -45
10 -124 10 -69 0 -127 4 -131 10 -7 11 47 121 68 138 9 8 94 12 278 14 l264 3
13 28 c7 15 16 43 19 62 l6 35 -396 0 -396 0 -69 -97z"/>
<path d="M3236 758 c-3 -24 -15 -135 -26 -248 -22 -225 -38 -363 -46 -398 l-4
-22 181 0 181 0 -6 88 c-7 87 -40 430 -54 552 l-7 65 -106 3 -107 3 -6 -43z"/>
<path d="M3570 768 c0 -18 4 -71 9 -118 6 -47 13 -129 17 -182 l6 -98 469 0
468 0 25 -42 c13 -24 28 -55 31 -71 l7 -27 -399 0 c-220 0 -447 -3 -505 -6
l-106 -7 5 -41 c2 -23 6 -51 9 -63 l4 -23 635 0 c533 0 635 2 635 14 0 17 -20
65 -69 171 -21 44 -53 117 -71 163 l-34 82 -420 0 c-232 0 -438 3 -458 6 -38
7 -38 7 -38 55 l0 49 430 0 c237 0 430 2 430 4 0 15 -44 103 -66 131 l-26 35
-494 0 -494 0 0 -32z"/>
</g>
</svg>
